<svg width="25" height="25" viewBox="0 0 25 25" fill="none" xmlns="http://www.w3.org/2000/svg">
<path d="M14.8199 2.2207H5.4796C4.8603 2.2207 4.26637 2.43635 3.82846 2.82019C3.39055 3.20404 3.14453 3.72465 3.14453 4.26749V20.6418C3.14453 21.1847 3.39055 21.7053 3.82846 22.0891C4.26637 22.473 4.8603 22.6886 5.4796 22.6886H19.49C20.1093 22.6886 20.7033 22.473 21.1412 22.0891C21.5791 21.7053 21.8251 21.1847 21.8251 20.6418V8.36107L14.8199 2.2207Z" stroke="white" stroke-width="1.75" stroke-linecap="round" stroke-linejoin="round"/>
<path d="M14.8164 2.2207V8.36107H21.8216" stroke="white" stroke-width="1.75" stroke-linecap="round" stroke-linejoin="round"/>
<path d="M17.1508 13.4727H7.81055" stroke="white" stroke-width="1.75" stroke-linecap="round" stroke-linejoin="round"/>
<path d="M17.1508 17.5684H7.81055" stroke="white" stroke-width="1.75" stroke-linecap="round" stroke-linejoin="round"/>
<path d="M10.1456 9.38086H8.97808H7.81055" stroke="white" stroke-width="1.75" stroke-linecap="round" stroke-linejoin="round"/>
</svg>
