<svg width="27" height="24" viewBox="0 0 27 24" fill="none" xmlns="http://www.w3.org/2000/svg">
<g clip-path="url(#clip0_149_2697)">
<path d="M10.2154 18.32H6.52923C5.06279 18.32 3.65641 17.6183 2.61947 16.3693C1.58254 15.1203 1 13.4263 1 11.66C1 9.89366 1.58254 8.19966 2.61947 6.95067C3.65641 5.70168 5.06279 5 6.52923 5H10.2154M15.7446 5H19.4308C20.8972 5 22.3036 5.70168 23.3405 6.95067C24.3775 8.19966 24.96 9.89366 24.96 11.66C24.96 13.4263 24.3775 15.1203 23.3405 16.3693C22.3036 17.6183 20.8972 18.32 19.4308 18.32H15.7446M7.64026 11.66H18.4349" stroke="white" stroke-width="3" stroke-linecap="round" stroke-linejoin="round"/>
</g>
<defs>
<clipPath id="clip0_149_2697">
<rect width="27" height="24" fill="white"/>
</clipPath>
</defs>
</svg>
