<svg width="24" height="24" viewBox="0 0 24 24" fill="none" xmlns="http://www.w3.org/2000/svg">
<path d="M16.001 3.99805H18.001C18.5314 3.99805 19.0401 4.20876 19.4152 4.58383C19.7903 4.95891 20.001 5.46761 20.001 5.99805V19.998C20.001 20.5285 19.7903 21.0372 19.4152 21.4123C19.0401 21.7873 18.5314 21.998 18.001 21.998H6.00098C5.47054 21.998 4.96184 21.7873 4.58676 21.4123C4.21169 21.0372 4.00098 20.5285 4.00098 19.998V5.99805C4.00098 5.46761 4.21169 4.95891 4.58676 4.58383C4.96184 4.20876 5.47054 3.99805 6.00098 3.99805H8.00098" stroke="white" stroke-width="2" stroke-linecap="round" stroke-linejoin="round"/>
<path d="M14.999 1.99805H8.99902C8.44674 1.99805 7.99902 2.44576 7.99902 2.99805V4.99805C7.99902 5.55033 8.44674 5.99805 8.99902 5.99805H14.999C15.5513 5.99805 15.999 5.55033 15.999 4.99805V2.99805C15.999 2.44576 15.5513 1.99805 14.999 1.99805Z" stroke="white" stroke-width="2" stroke-linecap="round" stroke-linejoin="round"/>
<path d="M15.9935 13.4805H7.63574" stroke="white" stroke-width="2" stroke-linecap="round" stroke-linejoin="round"/>
<path d="M15.9935 17.1426H7.63574" stroke="white" stroke-width="2" stroke-linecap="round" stroke-linejoin="round"/>
<path d="M15.7328 9.81641H11.6843H7.63574" stroke="white" stroke-width="2" stroke-linecap="round" stroke-linejoin="round"/>
</svg>
