<svg width="22" height="22" viewBox="0 0 22 22" fill="none" xmlns="http://www.w3.org/2000/svg">
<path d="M11 15.9156C10.8167 15.9156 10.6448 15.8872 10.4844 15.8304C10.324 15.7735 10.175 15.6759 10.0375 15.5375L5.0875 10.5875C4.8125 10.3125 4.6805 9.99167 4.6915 9.625C4.7025 9.25834 4.8345 8.9375 5.0875 8.66251C5.3625 8.3875 5.68929 8.2445 6.06787 8.2335C6.44646 8.2225 6.77279 8.35405 7.04688 8.62813L9.625 11.2063V1.375C9.625 0.985421 9.757 0.659088 10.021 0.396005C10.285 0.132922 10.6113 0.000921408 11 4.74137e-06C11.3887 -0.000911925 11.7155 0.131088 11.9804 0.396005C12.2453 0.660922 12.3768 0.987255 12.375 1.375V11.2063L14.9531 8.62813C15.2281 8.35313 15.5549 8.22113 15.9335 8.23213C16.3121 8.24313 16.6384 8.38659 16.9125 8.66251C17.1646 8.9375 17.2966 9.25834 17.3085 9.625C17.3204 9.99167 17.1884 10.3125 16.9125 10.5875L11.9625 15.5375C11.825 15.675 11.676 15.7726 11.5156 15.8304C11.3552 15.8881 11.1833 15.9165 11 15.9156ZM2.75 22C1.99375 22 1.34658 21.731 0.8085 21.1929C0.270416 20.6548 0.000916667 20.0072 0 19.25V16.5C0 16.1104 0.132 15.7841 0.396 15.521C0.66 15.2579 0.986333 15.1259 1.375 15.125C1.76367 15.1241 2.09046 15.2561 2.35537 15.521C2.62029 15.7859 2.75183 16.1123 2.75 16.5V19.25H19.25V16.5C19.25 16.1104 19.382 15.7841 19.646 15.521C19.91 15.2579 20.2363 15.1259 20.625 15.125C21.0137 15.1241 21.3405 15.2561 21.6054 15.521C21.8703 15.7859 22.0018 16.1123 22 16.5V19.25C22 20.0063 21.731 20.6539 21.1929 21.1929C20.6548 21.7319 20.0072 22.0009 19.25 22H2.75Z" fill="white"/>
</svg>
