<svg width="19" height="18" viewBox="0 0 19 18" fill="none" xmlns="http://www.w3.org/2000/svg">
<path d="M18.5547 4.44314L14.3093 0.421888C14.1682 0.288135 14.0006 0.182034 13.8162 0.109646C13.6317 0.037258 13.4341 0 13.2344 0C13.0348 0 12.8371 0.037258 12.6527 0.109646C12.4683 0.182034 12.3007 0.288135 12.1595 0.421888L0.445541 11.5199C0.303787 11.6532 0.1914 11.8118 0.114914 11.9865C0.0384287 12.1613 -0.000630243 12.3487 7.68991e-06 12.5378V16.56C7.68991e-06 16.9419 0.160144 17.3082 0.445188 17.5782C0.730233 17.8483 1.11684 18 1.51995 18H17.4793C17.6809 18 17.8742 17.9241 18.0167 17.7891C18.1592 17.6541 18.2393 17.4709 18.2393 17.28C18.2393 17.089 18.1592 16.9059 18.0167 16.7709C17.8742 16.6358 17.6809 16.56 17.4793 16.56H7.9151L18.5547 6.47986C18.6959 6.34614 18.8079 6.18738 18.8843 6.01264C18.9607 5.83791 19 5.65063 19 5.4615C19 5.27236 18.9607 5.08508 18.8843 4.91035C18.8079 4.73562 18.6959 4.57686 18.5547 4.44314ZM9.87963 4.61774L11.4651 6.11986L3.41988 13.742L1.83439 12.2399L9.87963 4.61774ZM1.51995 16.56V13.9779L4.2454 16.56H1.51995ZM6.07978 16.2621L4.49524 14.76L12.5395 7.13777L14.125 8.63989L6.07978 16.2621ZM15.1994 7.62197L10.955 3.59983L13.2349 1.4398L17.4793 5.46195L15.1994 7.62197Z" fill="white"/>
</svg>
