<svg width="39" height="33" viewBox="0 0 39 33" fill="none" xmlns="http://www.w3.org/2000/svg">
<mask id="mask0_27_995" style="mask-type:luminance" maskUnits="userSpaceOnUse" x="0" y="0" width="39" height="33">
<path d="M23 30.1667H4.1875C3.47473 30.1667 2.79115 29.8835 2.28715 29.3795C1.78315 28.8755 1.5 28.1919 1.5 27.4792V4.1875C1.5 3.47473 1.78315 2.79115 2.28715 2.28715C2.79115 1.78315 3.47473 1.5 4.1875 1.5H34.6458C35.3586 1.5 36.0422 1.78315 36.5462 2.28715C37.0502 2.79115 37.3333 3.47473 37.3333 4.1875V14.9904M32.8542 31.0625V20.3125M32.8542 20.3125L28.375 24.7917M32.8542 20.3125L37.3333 24.7917" stroke="white" stroke-width="3" stroke-linecap="round" stroke-linejoin="round"/>
<path d="M1.5 4.1875C1.5 3.47473 1.78315 2.79115 2.28715 2.28715C2.79115 1.78315 3.47473 1.5 4.1875 1.5H34.6458C35.3586 1.5 36.0422 1.78315 36.5462 2.28715C37.0502 2.79115 37.3333 3.47473 37.3333 4.1875V12.25H1.5V4.1875Z" fill="white" stroke="white" stroke-width="3"/>
<path d="M5.08332 6.87502C5.08332 5.88551 5.88548 5.08335 6.87499 5.08335C7.8645 5.08335 8.66666 5.88551 8.66666 6.87502C8.66666 7.86453 7.8645 8.66669 6.87499 8.66669C5.88548 8.66669 5.08332 7.86453 5.08332 6.87502Z" fill="black"/>
<path d="M10.4583 6.87502C10.4583 5.88551 11.2605 5.08335 12.25 5.08335C13.2395 5.08335 14.0417 5.88551 14.0417 6.87502C14.0417 7.86453 13.2395 8.66669 12.25 8.66669C11.2605 8.66669 10.4583 7.86453 10.4583 6.87502Z" fill="black"/>
</mask>
<g mask="url(#mask0_27_995)">
<path d="M-2.08334 -5.66669H40.9167V37.3333H-2.08334V-5.66669Z" fill="#126259"/>
</g>
</svg>
