<svg width="42" height="49" viewBox="0 0 42 49" fill="none" xmlns="http://www.w3.org/2000/svg">
<path d="M41.25 38.9583V41.25H0V38.9583L4.58333 34.375V20.625C4.58333 13.5208 9.23542 7.26458 16.0417 5.24792V4.58333C16.0417 3.36776 16.5246 2.20197 17.3841 1.34243C18.2436 0.482885 19.4094 0 20.625 0C21.8406 0 23.0064 0.482885 23.8659 1.34243C24.7254 2.20197 25.2083 3.36776 25.2083 4.58333V5.24792C32.0146 7.26458 36.6667 13.5208 36.6667 20.625V34.375L41.25 38.9583ZM25.2083 43.5417C25.2083 44.7572 24.7254 45.923 23.8659 46.7826C23.0064 47.6421 21.8406 48.125 20.625 48.125C19.4094 48.125 18.2436 47.6421 17.3841 46.7826C16.5246 45.923 16.0417 44.7572 16.0417 43.5417" fill="white"/>
</svg>
