<svg width="63" height="63" viewBox="0 0 63 63" fill="none" xmlns="http://www.w3.org/2000/svg">
<path d="M54.287 33.5099C54.998 33.5099 55.6799 33.2274 56.1826 32.7247C56.6854 32.222 56.9678 31.5401 56.9678 30.8291V18.3366C56.9965 16.5281 56.3073 14.7819 55.0511 13.4805C53.7949 12.1791 52.0742 11.4286 50.2658 11.3934H24.1277C23.4167 11.3934 22.7349 11.6758 22.2321 12.1785C21.7294 12.6813 21.4469 13.3632 21.4469 14.0742C21.4469 14.7851 21.7294 15.467 22.2321 15.9698C22.7349 16.4725 23.4167 16.7549 24.1277 16.7549H50.2658C50.6524 16.7891 51.01 16.9743 51.2609 17.2704C51.5118 17.5665 51.6359 17.9496 51.6062 18.3366V30.8291C51.6062 31.5401 51.8886 32.222 52.3914 32.7247C52.8941 33.2274 53.576 33.5099 54.287 33.5099ZM28.149 50.2648C28.3267 50.2648 28.4972 50.3354 28.6229 50.4611C28.7486 50.5868 28.8192 50.7573 28.8192 50.935V54.9562C28.8192 55.1339 28.7486 55.3044 28.6229 55.4301C28.4972 55.5558 28.3267 55.6264 28.149 55.6264H23.4575C22.7465 55.6264 22.0647 55.9088 21.5619 56.4116C21.0592 56.9143 20.7767 57.5962 20.7767 58.3072C20.7767 59.0182 21.0592 59.7001 21.5619 60.2028C22.0647 60.7055 22.7465 60.988 23.4575 60.988H38.8723C39.5833 60.988 40.2651 60.7055 40.7679 60.2028C41.2706 59.7001 41.5531 59.0182 41.5531 58.3072C41.5531 57.5962 41.2706 56.9143 40.7679 56.4116C40.2651 55.9088 39.5833 55.6264 38.8723 55.6264H34.851C34.6733 55.6264 34.5028 55.5558 34.3771 55.4301C34.2514 55.3044 34.1808 55.1339 34.1808 54.9562V50.935C34.1808 50.7573 34.2514 50.5868 34.3771 50.4611C34.5028 50.3354 34.6733 50.2648 34.851 50.2648H40.2127C40.5682 50.2648 40.9091 50.1236 41.1605 49.8722C41.4119 49.6209 41.5531 49.2799 41.5531 48.9244V45.5734C41.5531 45.2179 41.4119 44.877 41.1605 44.6256C40.9091 44.3743 40.5682 44.233 40.2127 44.233H12.7342C12.3788 44.233 12.0378 44.0918 11.7864 43.8405C11.5351 43.5891 11.3938 43.2481 11.3938 42.8926V32.1695C11.3938 31.4585 11.1114 30.7766 10.6086 30.2739C10.1059 29.7711 9.42402 29.4887 8.71302 29.4887C8.00202 29.4887 7.32014 29.7711 6.81739 30.2739C6.31464 30.7766 6.0322 31.4585 6.0322 32.1695V43.3216C6.00348 45.1301 6.69269 46.8763 7.94888 48.1777C9.20506 49.4791 10.9258 50.2296 12.7342 50.2648H28.149ZM4.23605 25.4675H13.19C14.3325 25.4394 15.4178 24.9621 16.2107 24.1391C17.0036 23.3161 17.4401 22.2137 17.4257 21.071V4.3965C17.4401 3.25378 17.0036 2.15143 16.2107 1.32843C15.4178 0.505431 14.3325 0.0281259 13.19 0H4.23605C3.09358 0.0281259 2.00823 0.505431 1.21534 1.32843C0.422438 2.15143 -0.0141071 3.25378 0.000347863 4.3965V21.071C-0.0141071 22.2137 0.422438 23.3161 1.21534 24.1391C2.00823 24.9621 3.09358 25.4394 4.23605 25.4675ZM4.02158 4.3965C4.02158 4.15523 4.15562 4.02119 4.23605 4.02119H13.19C13.19 4.02119 13.4045 4.15523 13.4045 4.3965V21.071C13.4045 21.3123 13.4045 21.4463 13.19 21.4463H4.23605C4.23605 21.4463 4.02158 21.3123 4.02158 21.071V4.3965ZM49.81 37.5311C48.6675 37.5592 47.5822 38.0365 46.7893 38.8595C45.9964 39.6825 45.5599 40.7849 45.5743 41.9276V58.9774C45.5882 59.5196 45.7088 60.0538 45.9292 60.5493C46.1497 61.0449 46.4656 61.4922 46.8589 61.8656C47.2523 62.2391 47.7154 62.5313 48.2217 62.7257C48.7281 62.9201 49.2678 63.0128 49.81 62.9986H58.764C59.3062 63.0128 59.8459 62.9201 60.3522 62.7257C60.8586 62.5313 61.3217 62.2391 61.715 61.8656C62.1084 61.4922 62.4243 61.0449 62.6447 60.5493C62.8651 60.0538 62.9858 59.5196 62.9997 58.9774V41.9276C63.0141 40.7849 62.5776 39.6825 61.7847 38.8595C60.9918 38.0365 59.9064 37.5592 58.764 37.5311H49.81ZM58.9784 41.9276V55.6264C58.9784 55.8041 58.9078 55.9746 58.7821 56.1003C58.6564 56.226 58.486 56.2966 58.3082 56.2966H50.2658C50.088 56.2966 49.9175 56.226 49.7918 56.1003C49.6662 55.9746 49.5955 55.8041 49.5955 55.6264V41.9276C49.5955 41.6863 49.7296 41.5522 49.81 41.5522H58.764C58.764 41.5522 58.9784 41.6863 58.9784 41.9276Z" fill="white"/>
</svg>
