<svg width="28" height="28" viewBox="0 0 28 28" fill="none" xmlns="http://www.w3.org/2000/svg">
<path d="M19.745 16.5C19.855 15.5925 19.9375 14.685 19.9375 13.75C19.9375 12.815 19.855 11.9075 19.745 11H24.3925C24.6125 11.88 24.75 12.8013 24.75 13.75C24.75 14.6987 24.6125 15.62 24.3925 16.5M17.3113 24.145C18.1362 22.6187 18.7688 20.9688 19.2087 19.25H23.265C21.9329 21.5439 19.8194 23.2815 17.3113 24.145ZM16.9675 16.5H10.5325C10.395 15.5925 10.3125 14.685 10.3125 13.75C10.3125 12.815 10.395 11.8938 10.5325 11H16.9675C17.0912 11.8938 17.1875 12.815 17.1875 13.75C17.1875 14.685 17.0912 15.5925 16.9675 16.5ZM13.75 24.695C12.6088 23.045 11.6875 21.2162 11.1238 19.25H16.3762C15.8125 21.2162 14.8912 23.045 13.75 24.695ZM8.25 8.25H4.235C5.55313 5.94967 7.66516 4.20921 10.175 3.355C9.35 4.88125 8.73125 6.53125 8.25 8.25ZM4.235 19.25H8.25C8.73125 20.9688 9.35 22.6187 10.175 24.145C7.67012 23.2819 5.5609 21.5438 4.235 19.25ZM3.1075 16.5C2.8875 15.62 2.75 14.6987 2.75 13.75C2.75 12.8013 2.8875 11.88 3.1075 11H7.755C7.645 11.9075 7.5625 12.815 7.5625 13.75C7.5625 14.685 7.645 15.5925 7.755 16.5M13.75 2.79125C14.8912 4.44125 15.8125 6.28375 16.3762 8.25H11.1238C11.6875 6.28375 12.6088 4.44125 13.75 2.79125ZM23.265 8.25H19.2087C18.7777 6.54721 18.1405 4.90339 17.3113 3.355C19.8412 4.22125 21.945 5.9675 23.265 8.25ZM13.75 0C6.14625 0 0 6.1875 0 13.75C0 17.3967 1.44866 20.8941 4.02728 23.4727C5.30409 24.7495 6.81988 25.7623 8.4881 26.4533C10.1563 27.1443 11.9443 27.5 13.75 27.5C17.3967 27.5 20.8941 26.0513 23.4727 23.4727C26.0513 20.8941 27.5 17.3967 27.5 13.75C27.5 11.9443 27.1443 10.1563 26.4533 8.4881C25.7623 6.81988 24.7495 5.30409 23.4727 4.02728C22.1959 2.75048 20.6801 1.73766 19.0119 1.04666C17.3437 0.355654 15.5557 0 13.75 0Z" fill="white"/>
</svg>
