<svg width="26" height="40" viewBox="0 0 26 40" fill="none" xmlns="http://www.w3.org/2000/svg">
<path d="M22.6667 0H2.83333C2.08189 0 1.36122 0.298511 0.829865 0.829864C0.298512 1.36122 0 2.08189 0 2.83333V36.8333C0 37.5848 0.298512 38.3055 0.829865 38.8368C1.36122 39.3682 2.08189 39.6667 2.83333 39.6667H22.6667C23.4181 39.6667 24.1388 39.3682 24.6701 38.8368C25.2015 38.3055 25.5 37.5848 25.5 36.8333V2.83333C25.5 2.08189 25.2015 1.36122 24.6701 0.829864C24.1388 0.298511 23.4181 0 22.6667 0ZM14.1667 36.8333H11.3333V34H14.1667V36.8333ZM2.83333 31.1667V2.83333H22.6667V31.1667H2.83333Z" fill="#929292"/>
</svg>
