<svg width="14" height="14" viewBox="0 0 14 14" fill="none" xmlns="http://www.w3.org/2000/svg">
<g clip-path="url(#clip0_600_779)">
<path fill-rule="evenodd" clip-rule="evenodd" d="M7 2H11.5C11.6326 2 11.7598 2.05268 11.8536 2.14645C11.9473 2.24021 12 2.36739 12 2.5V11.5C12 11.6326 11.9473 11.7598 11.8536 11.8536C11.7598 11.9473 11.6326 12 11.5 12H2.5C2.36739 12 2.24021 11.9473 2.14645 11.8536C2.05268 11.7598 2 11.6326 2 11.5V7C2 6.73478 1.89464 6.48043 1.70711 6.29289C1.51957 6.10536 1.26522 6 1 6C0.734783 6 0.48043 6.10536 0.292893 6.29289C0.105357 6.48043 0 6.73478 0 7V11.5C0 12.163 0.263392 12.7989 0.732233 13.2678C1.20107 13.7366 1.83696 14 2.5 14H11.5C12.163 14 12.7989 13.7366 13.2678 13.2678C13.7366 12.7989 14 12.163 14 11.5V2.5C14 1.83696 13.7366 1.20107 13.2678 0.732233C12.7989 0.263392 12.163 0 11.5 0L7 0C6.73478 0 6.48043 0.105357 6.29289 0.292893C6.10536 0.48043 6 0.734784 6 1C6 1.26522 6.10536 1.51957 6.29289 1.70711C6.48043 1.89464 6.73478 2 7 2ZM4.462 0.309C4.4242 0.217564 4.36013 0.139396 4.27789 0.0843905C4.19565 0.0293854 4.09894 1.60608e-05 4 0L0.5 0C0.367392 0 0.240214 0.0526784 0.146446 0.146447C0.0526781 0.240215 0 0.367392 0 0.5V4C-0.000177383 4.09902 0.0290508 4.19586 0.0839796 4.27825C0.138908 4.36064 0.217063 4.42487 0.308537 4.46278C0.40001 4.5007 0.500682 4.5106 0.597791 4.49124C0.6949 4.47187 0.784071 4.42411 0.854 4.354L1.896 3.31L6.293 7.707C6.4816 7.88916 6.7342 7.98995 6.9964 7.98767C7.2586 7.9854 7.50941 7.88023 7.69482 7.69482C7.88023 7.50941 7.9854 7.2586 7.98767 6.9964C7.98995 6.7342 7.88916 6.4816 7.707 6.293L3.311 1.896L4.354 0.854C4.42388 0.784022 4.47144 0.694892 4.49067 0.597882C4.50989 0.500872 4.49991 0.40034 4.462 0.309Z" fill="white"/>
</g>
<defs>
<clipPath id="clip0_600_779">
<rect width="14" height="14" fill="white" transform="matrix(-1 0 0 1 14 0)"/>
</clipPath>
</defs>
</svg>
