<svg width="26" height="11" viewBox="0 0 26 11" fill="none" xmlns="http://www.w3.org/2000/svg">
<path d="M10.0904 9.2H6.40423C4.93779 9.2 3.53141 8.76145 2.49447 7.98083C1.45754 7.20021 0.875 6.14146 0.875 5.0375C0.875 3.93354 1.45754 2.87479 2.49447 2.09417C3.53141 1.31355 4.93779 0.875 6.40423 0.875H10.0904M15.6196 0.875H19.3058C20.7722 0.875 22.1786 1.31355 23.2155 2.09417C24.2525 2.87479 24.835 3.93354 24.835 5.0375C24.835 6.14146 24.2525 7.20021 23.2155 7.98083C22.1786 8.76145 20.7722 9.2 19.3058 9.2H15.6196M7.51526 5.0375H18.3099" stroke="white" stroke-width="1.75" stroke-linecap="round" stroke-linejoin="round"/>
</svg>
