<svg width="21" height="21" viewBox="0 0 21 21" fill="none" xmlns="http://www.w3.org/2000/svg">
<path d="M19.5002 19.5002L15.1572 15.1572M15.1572 15.1572C15.9001 14.4143 16.4894 13.5324 16.8914 12.5618C17.2935 11.5911 17.5004 10.5508 17.5004 9.50021C17.5004 8.4496 17.2935 7.40929 16.8914 6.43866C16.4894 5.46803 15.9001 4.58609 15.1572 3.84321C14.4143 3.10032 13.5324 2.51103 12.5618 2.10898C11.5911 1.70693 10.5508 1.5 9.50021 1.5C8.4496 1.5 7.40929 1.70693 6.43866 2.10898C5.46803 2.51103 4.58609 3.10032 3.84321 3.84321C2.34288 5.34354 1.5 7.37842 1.5 9.50021C1.5 11.622 2.34288 13.6569 3.84321 15.1572C5.34354 16.6575 7.37842 17.5004 9.50021 17.5004C11.622 17.5004 13.6569 16.6575 15.1572 15.1572Z" stroke="#2F735E" stroke-width="3" stroke-linecap="round" stroke-linejoin="round"/>
</svg>
