<svg width="21" height="21" viewBox="0 0 21 21" fill="none" xmlns="http://www.w3.org/2000/svg">
<path d="M5.67601 10.9912L6.99084 11.3572C7.82925 11.5915 8.24735 11.7086 8.53875 12.0035C8.83015 12.2984 8.94226 12.7179 9.16537 13.5579L9.51677 14.8781C10.5182 18.6368 11.0183 20.5156 12.142 20.584C13.2658 20.6503 13.9864 18.8427 15.4253 15.2298L19.3751 5.31013C20.5052 2.47344 21.0702 1.054 20.3538 0.328932C19.6373 -0.396133 18.2112 0.151904 15.3612 1.24799L5.39506 5.07885C1.76517 6.47446 -0.0508756 7.17336 0.00191416 8.29783C0.0547039 9.4223 1.92848 9.94378 5.67601 10.9912Z" fill="white"/>
</svg>
