<svg width="22" height="20" viewBox="0 0 22 20" fill="none" xmlns="http://www.w3.org/2000/svg">
<mask id="mask0_1397_1504" style="mask-type:alpha" maskUnits="userSpaceOnUse" x="0" y="0" width="22" height="20">
<path d="M10.5875 1.5125C10.1864 1.5125 9.80165 1.67185 9.518 1.9555C9.23435 2.23915 9.075 2.62386 9.075 3.025C9.075 3.42614 9.23435 3.81085 9.518 4.0945C9.80165 4.37815 10.1864 4.5375 10.5875 4.5375C10.9886 4.5375 11.3733 4.37815 11.657 4.0945C11.9406 3.81085 12.1 3.42614 12.1 3.025C12.1 2.62386 11.9406 2.23915 11.657 1.9555C11.3733 1.67185 10.9886 1.5125 10.5875 1.5125ZM7.5625 3.025C7.5625 2.22272 7.8812 1.4533 8.4485 0.886002C9.0158 0.318704 9.78522 0 10.5875 0C11.3898 0 12.1592 0.318704 12.7265 0.886002C13.2938 1.4533 13.6125 2.22272 13.6125 3.025C13.6125 3.82728 13.2938 4.5967 12.7265 5.164C12.1592 5.7313 11.3898 6.05 10.5875 6.05C9.78522 6.05 9.0158 5.7313 8.4485 5.164C7.8812 4.5967 7.5625 3.82728 7.5625 3.025ZM17.7719 2.26875C17.471 2.26875 17.1825 2.38826 16.9697 2.601C16.757 2.81374 16.6375 3.10227 16.6375 3.40313C16.6375 3.70398 16.757 3.99251 16.9697 4.20525C17.1825 4.41799 17.471 4.5375 17.7719 4.5375C18.0727 4.5375 18.3613 4.41799 18.574 4.20525C18.7867 3.99251 18.9062 3.70398 18.9062 3.40313C18.9062 3.10227 18.7867 2.81374 18.574 2.601C18.3613 2.38826 18.0727 2.26875 17.7719 2.26875ZM15.125 3.40313C15.125 3.05553 15.1935 2.71134 15.3265 2.39021C15.4595 2.06908 15.6545 1.77729 15.9002 1.5315C16.146 1.28572 16.4378 1.09075 16.759 0.957731C17.0801 0.824713 17.4243 0.75625 17.7719 0.75625C18.1195 0.75625 18.4637 0.824713 18.7848 0.957731C19.1059 1.09075 19.3977 1.28572 19.6435 1.5315C19.8893 1.77729 20.0842 2.06908 20.2173 2.39021C20.3503 2.71134 20.4187 3.05553 20.4187 3.40313C20.4187 4.10512 20.1399 4.77836 19.6435 5.27475C19.1471 5.77113 18.4739 6.05 17.7719 6.05C17.0699 6.05 16.3966 5.77113 15.9002 5.27475C15.4039 4.77836 15.125 4.10512 15.125 3.40313ZM2.26875 3.40313C2.26875 3.10227 2.38826 2.81374 2.601 2.601C2.81374 2.38826 3.10227 2.26875 3.40312 2.26875C3.70398 2.26875 3.99251 2.38826 4.20525 2.601C4.41799 2.81374 4.5375 3.10227 4.5375 3.40313C4.5375 3.70398 4.41799 3.99251 4.20525 4.20525C3.99251 4.41799 3.70398 4.5375 3.40312 4.5375C3.10227 4.5375 2.81374 4.41799 2.601 4.20525C2.38826 3.99251 2.26875 3.70398 2.26875 3.40313ZM3.40312 0.75625C2.70113 0.75625 2.02789 1.03512 1.5315 1.5315C1.03512 2.02789 0.75625 2.70113 0.75625 3.40313C0.75625 4.10512 1.03512 4.77836 1.5315 5.27475C2.02789 5.77113 2.70113 6.05 3.40312 6.05C4.10512 6.05 4.77836 5.77113 5.27475 5.27475C5.77113 4.77836 6.05 4.10512 6.05 3.40313C6.05 2.70113 5.77113 2.02789 5.27475 1.5315C4.77836 1.03512 4.10512 0.75625 3.40312 0.75625ZM5.02982 16.2632C4.68779 16.4886 4.2911 16.6172 3.88186 16.6354C3.47262 16.6536 3.06609 16.5606 2.70543 16.3663C2.34477 16.1721 2.04343 15.8838 1.8334 15.5321C1.62337 15.1804 1.51248 14.7784 1.5125 14.3688V9.45312C1.5125 9.35284 1.55234 9.25666 1.62325 9.18575C1.69416 9.11484 1.79034 9.075 1.89062 9.075H4.93907C5.00878 8.52148 5.2302 7.99802 5.57886 7.5625H1.89062C1.3892 7.5625 0.908312 7.76169 0.553751 8.11625C0.19919 8.47081 1.69697e-07 8.9517 1.69697e-07 9.45312V14.3688C-0.000194895 15.0199 0.167781 15.6601 0.487658 16.2273C0.807535 16.7945 1.26847 17.2695 1.82582 17.6063C2.38317 17.943 3.01803 18.1301 3.66893 18.1495C4.31982 18.1688 4.96468 18.0197 5.54104 17.7167C5.30531 17.2577 5.13332 16.7687 5.02982 16.2632ZM15.634 17.7167C16.2103 18.0197 16.8552 18.1688 17.5061 18.1495C18.157 18.1301 18.7918 17.943 19.3492 17.6063C19.9065 17.2695 20.3675 16.7945 20.6873 16.2273C21.0072 15.6601 21.1752 15.0199 21.175 14.3688V9.45312C21.175 8.9517 20.9758 8.47081 20.6212 8.11625C20.2667 7.76169 19.7858 7.5625 19.2844 7.5625H15.5961C15.9448 7.99802 16.1662 8.52148 16.2359 9.075H19.2844C19.3847 9.075 19.4808 9.11484 19.5517 9.18575C19.6227 9.25666 19.6625 9.35284 19.6625 9.45312V14.3688C19.6625 14.7784 19.5516 15.1804 19.3416 15.5321C19.1316 15.8838 18.8302 16.1721 18.4696 16.3663C18.1089 16.5606 17.7024 16.6536 17.2931 16.6354C16.8839 16.6172 16.4872 16.4886 16.1452 16.2632C16.0417 16.7687 15.8697 17.2577 15.634 17.7167ZM7.94062 7.5625C7.4392 7.5625 6.95831 7.76169 6.60375 8.11625C6.24919 8.47081 6.05 8.9517 6.05 9.45312V15.125C6.05 16.3284 6.52806 17.4826 7.379 18.3335C8.22995 19.1844 9.38408 19.6625 10.5875 19.6625C11.7909 19.6625 12.945 19.1844 13.796 18.3335C14.6469 17.4826 15.125 16.3284 15.125 15.125V9.45312C15.125 8.9517 14.9258 8.47081 14.5712 8.11625C14.2167 7.76169 13.7358 7.5625 13.2344 7.5625H7.94062ZM7.5625 9.45312C7.5625 9.35284 7.60234 9.25666 7.67325 9.18575C7.74416 9.11484 7.84034 9.075 7.94062 9.075H13.2344C13.3347 9.075 13.4308 9.11484 13.5017 9.18575C13.5727 9.25666 13.6125 9.35284 13.6125 9.45312V15.125C13.6125 15.9273 13.2938 16.6967 12.7265 17.264C12.1592 17.8313 11.3898 18.15 10.5875 18.15C9.78522 18.15 9.0158 17.8313 8.4485 17.264C7.8812 16.6967 7.5625 15.9273 7.5625 15.125V9.45312Z" fill="#7C4CC6"/>
</mask>
<g mask="url(#mask0_1397_1504)">
<rect x="-5" y="-4" width="32" height="28" fill="white"/>
<rect x="-5" y="-4" width="32" height="28" fill="url(#paint0_linear_1397_1504)"/>
</g>
<defs>
<linearGradient id="paint0_linear_1397_1504" x1="-3.72" y1="1.75392" x2="25.0298" y2="26.1609" gradientUnits="userSpaceOnUse">
<stop offset="0.02" stop-color="#2F735E"/>
<stop offset="0.495" stop-color="#059F70"/>
<stop offset="0.855" stop-color="#5CFFAC"/>
</linearGradient>
</defs>
</svg>
